PathFileType	4	(X/Y/Z)	D:\Studies\Accel_Decel\Raw_data\p_01\static/static_01.trc
DataRate	CameraRate	NumFrames	NumMarkers	Units	OrigDataRate	OrigDataStartFrame	OrigNumFrames
200.000000	200.000000	4	63	mm	200.000000	0	987
Frame#	Time	C7			Sternum			MidT			L.ASIS			R.ASIS			L.PSIS			R.PSIS			L.Acromion			L.Elbow.Med			L.Elbow.Lat			L.Radius			L.Ulna			R.Acromion			R.Elbow.Med			R.Elbow.Lat			R.Ulna			R.Radius			L.Thigh.Post.Sup			L.Thigh.Ant.Sup			L.Thigh.Post.Inf			L.Thigh.Ant.Inf			L.Knee.Med			L.Knee.Lat			L.Shank.Post.Sup			L.Shank.Ant.Sup			L.Shank.Post.Inf			L.Shank.Ant.Inf			L.Ankle.Med			L.Ankle.Lat			L.Heel.Sup			L.Heel.Inf			L.Heel. Med			L.Heel.Lat			L.Midfoot.Med			L.Midfoot.Int			L.Midfoot.Lat			L.MTP1			L.MTP2			L.MTP5			L.Toe			R.Thigh.Post.Sup			R.Thigh.Ant.Sup			R.Thigh.Post.Inf			R.Thigh.Ant.Inf			R.Knee.Med			R.Knee.Lat			R.Shank.Post.Sup			R.Shank.Ant.Sup			R.Shank.Post.Inf			R.Shank.Ant.Inf			R.Ankle.Med			R.Ankle.Lat			R.Heel.Sup			R.Heel.Inf			R.Heel.Med			R.Heel.Lat			R.Midfoot.Med			R.Midfoot.Int			R.Midfoot.Lat			R.MTP1			R.MTP2			R.MTP5			R.Toe			
		X1	Y1	Z1	X2	Y2	Z2	X3	Y3	Z3	X4	Y4	Z4	X5	Y5	Z5	X6	Y6	Z6	X7	Y7	Z7	X8	Y8	Z8	X9	Y9	Z9	X10	Y10	Z10	X11	Y11	Z11	X12	Y12	Z12	X13	Y13	Z13	X14	Y14	Z14	X15	Y15	Z15	X16	Y16	Z16	X17	Y17	Z17	X18	Y18	Z18	X19	Y19	Z19	X20	Y20	Z20	X21	Y21	Z21	X22	Y22	Z22	X23	Y23	Z23	X24	Y24	Z24	X25	Y25	Z25	X26	Y26	Z26	X27	Y27	Z27	X28	Y28	Z28	X29	Y29	Z29	X30	Y30	Z30	X31	Y31	Z31	X32	Y32	Z32	X33	Y33	Z33	X34	Y34	Z34	X35	Y35	Z35	X36	Y36	Z36	X37	Y37	Z37	X38	Y38	Z38	X39	Y39	Z39	X40	Y40	Z40	X41	Y41	Z41	X42	Y42	Z42	X43	Y43	Z43	X44	Y44	Z44	X45	Y45	Z45	X46	Y46	Z46	X47	Y47	Z47	X48	Y48	Z48	X49	Y49	Z49	X50	Y50	Z50	X51	Y51	Z51	X52	Y52	Z52	X53	Y53	Z53	X54	Y54	Z54	X55	Y55	Z55	X56	Y56	Z56	X57	Y57	Z57	X58	Y58	Z58	X59	Y59	Z59	X60	Y60	Z60	X61	Y61	Z61	X62	Y62	Z62	X63	Y63	Z63	

1	0	156.4315032958985	1412.037841796875	238.2547912597657	310.4859008789064	1355.092651367188	235.2449645996095	113.785873413086	1256.252685546875	237.0189819335939	305.8115234375001	946.863159179688	116.7744522094727	307.4419860839845	949.4855346679692	335.9849548339845	141.1672515869141	970.7673339843755	186.9263153076172	140.5217285156251	967.8815917968755	268.1065368652345	222.3744049072267	1398.585571289063	55.51758193969729	244.0657196044923	1082.09765625	58.51982879638675	219.1779327392579	1124.663208007813	-38.93211746215822	289.4522094726564	911.070922851563	-120.2909317016602	246.6446533203126	873.2449340820317	-60.57501220703128	217.7449188232423	1382.705322265625	421.0435791015627	244.6361236572267	1063.129150390625	414.0876159667971	219.2879180908204	1093.964599609375	520.3093872070315	253.1310424804689	848.0365600585942	519.7390747070315	289.6444091796876	879.862670898438	588.4761352539065	197.0005340576173	701.7901611328127	55.53370285034183	270.5525512695314	700.1295166015627	40.66625595092775	193.9307403564454	597.6705322265627	61.85952758789065	256.6214904785157	611.810241699219	43.26546096801759	257.4262084960939	480.5120544433596	176.3955535888672	218.8105773925782	502.7555236816409	60.87575912475589	153.1445465087891	309.5316467285157	45.85523986816408	233.9857177734376	297.7780151367189	46.94696044921876	156.4806671142579	248.2971496582032	47.14675521850587	217.3086242675782	220.1545562744142	48.81654739379886	201.5992584228517	113.9959716796876	139.5453796386719	182.1677398681641	101.209571838379	49.98309707641604	117.1868972778321	79.98671722412112	101.3630752563477	111.8132934570313	49.22113037109378	97.49897003173834	144.3198242187501	49.59282302856448	138.679672241211	132.9487457275391	44.94666671752931	56.6750411987305	243.8837127685548	88.5072937011719	138.4225158691407	277.576385498047	109.9018020629883	88.6121520996094	221.2116699218751	84.84903717041018	33.34872436523439	328.5215148925782	62.23540878295901	119.4966278076172	335.9205017089845	74.75775909423831	86.2370300292969	316.0997009277345	59.00561904907229	21.76315498352051	374.5380859375001	68.02262115478518	80.74881744384768	175.0311279296876	711.3592529296877	390.0379333496096	244.2945556640626	708.4993896484377	419.0235900878909	181.1576538085938	625.9270629882815	406.1911315917971	239.7251586914064	603.0635986328127	419.6834716796877	246.563201904297	484.428894042969	291.9907531738282	217.2049102783204	494.0155334472659	407.2723388671877	141.9222717285157	271.7596740722657	407.1329040527346	204.3400726318361	287.0716857910157	423.405700683594	135.6873931884766	210.9914703369142	388.6135864257815	207.5557250976564	206.9483489990236	411.3162231445315	202.5812072753907	121.5643692016602	317.1303710937501	175.184066772461	109.5466842651368	402.029968261719	120.5553207397462	84.05164337158206	349.5078125000001	113.287826538086	47.88410949707033	352.3803100585939	159.9549560546876	39.73184204101564	305.3544311523439	142.0950012207032	47.44380950927736	396.3335266113284	241.9155273437501	87.91653442382815	312.276580810547	280.812469482422	108.6004333496094	362.8088378906251	225.1571807861329	84.17617034912112	416.698425292969	319.0891723632814	65.11618804931643	325.2123107910157	328.9088745117189	77.33403015136722	369.293670654297	294.7323608398439	46.24366760253908	433.2153930664065	373.3266906738282	71.23982238769534	371.3186035156251	
2	0.005	156.4339294433594	1412.029296875	238.2803344726564	310.4930725097657	1355.100463867188	235.2779083251954	113.7659606933594	1256.249267578125	237.0427246093751	305.7842102050782	946.8569946289067	116.8186264038087	307.4152221679689	949.4709472656255	336.0244750976564	141.1140441894532	970.7437133789067	186.9946441650391	140.4721221923829	967.8728027343755	268.1741638183595	222.3918762207032	1398.573974609375	55.54236221313479	244.0514373779298	1082.085693359375	58.53823471069339	219.1915130615236	1124.645141601563	-38.88459777832033	289.4962158203126	911.101684570313	-120.2478179931641	246.6609802246095	873.2387695312505	-60.59597778320315	217.7361602783204	1382.6943359375	421.0699157714846	244.5793609619142	1063.132202148438	414.1292419433596	219.2432403564454	1093.955932617188	520.3515625000002	253.0582275390626	848.0419311523442	519.8166503906252	289.5919494628907	879.8420410156255	588.5327148437502	196.9536590576173	701.7510375976565	55.5943298339844	270.5505371093751	700.1519775390627	40.72422027587892	193.880584716797	597.6274414062502	61.91632843017581	256.5559387207032	611.8339843750002	43.31317138671876	257.3938293457032	480.5215454101565	176.4033508300782	218.7749481201173	502.748718261719	60.92544555664065	153.1102905273438	309.5076293945314	45.87041091918947	233.9318695068361	297.775604248047	46.960750579834	156.4943542480469	248.3125305175782	47.19006729125978	217.2847290039064	220.1765899658204	48.80845642089847	201.6089935302736	114.014274597168	139.5691223144532	182.1533813476563	101.1902008056641	50.00194168090823	117.177116394043	79.9682312011719	101.3631896972657	111.7835540771485	49.1994438171387	97.5216903686524	144.2917175292969	49.57549285888675	138.683578491211	132.9180603027344	44.95324325561525	56.65079116821292	243.8788452148439	88.50224304199222	138.4425354003907	277.595672607422	109.8939285278321	88.59529876708987	221.1747436523439	84.83675384521487	33.36468887329103	328.5254211425782	62.23164367675784	119.5114669799805	335.9411621093751	74.72818756103518	86.21900177001956	316.1128234863282	58.98279190063479	21.80232620239259	374.5195922851564	68.00872802734378	80.75778961181643	174.4681854248047	711.6813964843752	390.5679626464846	244.2653198242189	708.4799804687502	419.0545654296877	181.1793670654297	625.962341308594	406.292419433594	239.8512420654298	603.1386718750002	419.7845458984377	246.486297607422	484.424743652344	292.0029907226564	217.1763763427736	493.9927062988284	407.3085937500002	141.8842468261719	271.752166748047	407.1435241699221	204.3484039306642	287.0455017089845	423.4339294433596	135.7152709960938	210.9455718994142	388.7341308593752	207.5107421875001	206.9803161621095	411.3316955566409	202.5728149414064	121.5518646240235	317.1373901367189	175.2046051025391	109.6083755493165	402.1271667480471	120.5421142578126	84.0319519042969	349.5410766601564	113.2566146850587	47.85255050659181	352.3787841796876	159.8997344970704	39.73037338256837	305.3721618652345	142.0600128173829	47.43494415283205	396.3338623046877	241.8937072753907	87.90364837646487	312.2939758300782	280.8231506347657	108.6072616577149	362.8162536621095	225.1564178466798	84.24717712402347	416.8400573730471	319.0845947265626	65.10559844970706	325.2200317382814	328.8936157226564	77.32346343994143	369.2918701171876	294.7321166992189	46.23350143432619	433.2120666503909	373.3093566894532	71.22047424316409	371.3240966796876	
3	0.01	156.4563903808594	1412.0146484375	238.3066864013673	310.5170288085939	1355.07568359375	235.3191375732423	113.7716064453126	1256.25	237.0697479248048	305.7430114746095	946.851928710938	116.8690185546876	307.3802795410157	949.4560546875005	336.0649719238282	141.0572204589844	970.7600097656255	187.0119934082032	140.4523620605469	967.862182617188	268.211639404297	222.3967285156251	1398.58935546875	55.56343841552737	244.0599517822267	1082.066162109375	58.5569763183594	219.1895904541017	1124.636962890625	-38.86104965209962	289.4896240234376	911.1195678710942	-120.2793807983399	246.6873168945314	873.2366333007817	-60.61127090454104	217.7264404296876	1382.674560546875	421.0947265625002	244.5381164550782	1063.118896484375	414.1670227050784	219.2083740234376	1093.941040039063	520.3780517578127	253.0380249023439	848.0048828125005	519.8482666015627	289.5180053710939	879.8488159179692	588.5892333984377	196.9407043457032	701.772888183594	55.65203094482425	270.8667297363282	699.8911132812502	41.55117034912111	193.8654632568361	597.590026855469	61.92423248291018	256.5928649902345	611.821472167969	43.41521072387697	257.3345031738282	480.5195922851565	176.4375305175782	218.7700805664064	502.7277832031252	60.96721267700198	153.0680084228516	309.4834289550782	45.85909271240236	233.9322052001954	297.7733764648439	46.97908782958986	156.4640808105469	248.2535858154298	47.21358871459962	217.2762298583986	220.1809539794923	48.86777114868167	201.5955810546876	114.0033416748047	139.5627746582032	182.1478271484376	101.1899414062501	49.99819564819339	117.155502319336	79.94963836669925	101.363510131836	111.7828750610352	49.16871261596683	97.50619506835943	144.3058471679688	49.54823303222659	138.7088928222657	132.8925018310547	44.95448303222658	56.65400695800784	243.8771514892579	88.4906921386719	138.4499053955079	277.6044311523439	109.8958358764649	88.57463836669925	221.1663360595704	84.83196258544925	33.3555374145508	328.4935913085939	62.20910263061526	119.4893875122071	335.9234924316407	74.73844909667972	86.24314880371097	316.0848999023439	58.96912765502933	21.79081344604493	374.5215759277345	67.99646759033206	80.75513458251956	174.4170227050782	711.644226074219	390.5958251953127	244.2264404296876	708.4857177734377	419.0925292968752	181.9055480957032	625.337829589844	405.4216918945315	239.6091613769532	603.0134277343752	419.7199707031252	246.4304962158204	484.425964355469	292.0217590332032	217.1298065185548	493.9784851074221	407.3312988281252	141.8615264892579	271.7151489257814	407.1485290527346	204.4933013916017	287.1059570312501	423.0893859863284	135.6782379150391	210.9131927490236	388.7047119140627	207.4812622070314	206.9452209472657	411.3335266113284	202.5345306396486	121.5309219360352	317.1442871093751	175.1765289306641	109.5933227539063	402.1074829101565	120.5066070556641	84.00666046142581	349.5354309082032	113.256217956543	47.83599090576173	352.3646240234376	159.9248809814454	39.69150924682619	305.3888244628907	142.0694274902344	47.40686416625978	396.3529968261721	241.8920440673829	87.88642120361331	312.290252685547	280.823211669922	108.596534729004	362.8046875000001	225.1495056152345	84.24317169189456	416.8491210937502	319.0654296875001	65.10408020019534	325.221405029297	328.8986816406251	77.2963562011719	369.3004150390626	294.7195129394532	46.21321487426759	433.2328796386721	373.3121032714845	71.226676940918	371.3360290527345	
4	0.015	156.4780273437501	1412.009643554688	238.3096008300782	310.519744873047	1355.077026367188	235.334442138672	113.795997619629	1256.207275390625	237.0737304687501	305.7207336425782	946.851440429688	116.8952407836915	307.3692626953126	949.445678710938	336.1111145019532	141.0858306884766	970.7246704101567	187.0630035400391	140.4449310302735	967.820190429688	268.2239379882814	222.4125213623048	1398.590209960938	55.58341979980472	244.1067962646486	1082.075561523438	58.57369232177737	219.1635742187501	1124.626953125	-38.86609649658205	289.5425415039064	911.136352539063	-120.290267944336	246.7418365478517	873.225219726563	-60.61041259765628	217.7178344726564	1382.673950195313	421.0960693359377	244.5314483642579	1063.09130859375	414.1836547851565	219.1445617675782	1093.925537109375	520.3853149414065	253.0026702880861	847.9932250976567	519.8726196289065	289.4446716308595	879.8690795898442	588.6357421875002	197.0645904541017	701.8333740234377	55.9140434265137	271.583221435547	700.0030517578127	41.10809707641603	193.8510589599611	597.5681762695315	61.93590164184573	256.5197753906251	611.810241699219	43.39031219482423	257.350799560547	480.5306091308596	176.4566345214844	218.722869873047	502.7029113769534	60.98145294189456	153.0633239746094	309.4876098632814	45.93381118774415	233.8792877197267	297.7596435546876	46.97886276245119	156.5270233154297	248.2425537109376	47.25164031982423	217.2692871093751	220.1753845214845	48.86476516723636	201.6015930175782	114.0161590576172	139.5836944580079	182.1683044433594	101.1718292236329	49.99162292480472	117.1510009765626	79.94839477539065	101.3346176147462	111.7966384887696	49.14890289306643	97.48601531982428	144.3020477294922	49.52013015747073	138.7144165039063	132.9157867431641	44.90370941162111	56.65550613403323	243.8727874755861	88.49910736083987	138.4406280517579	277.6103820800782	109.8862991333008	88.59539031982425	221.149627685547	84.80295562744143	33.35363769531251	328.4852905273439	62.20883560180667	119.4978256225587	335.9180908203126	74.72547149658206	86.21917724609378	316.0805053710939	58.95374298095706	21.78660964965821	374.5227355957032	67.96785736083987	80.74671936035159	174.4025573730469	711.5980224609377	390.593688964844	244.1749114990236	708.4541625976565	419.1362304687502	181.8720703125001	625.3389282226565	405.4671936035159	239.6288146972657	603.041442871094	419.7742919921877	245.9378051757814	484.4254150390627	292.2265014648439	217.1023406982423	493.957458496094	407.3497009277346	141.8647766113282	271.6936645507814	407.1686706542971	204.3073883056642	287.038787841797	423.4278869628909	135.2595367431641	211.0287170410157	389.1229553222659	207.4692993164064	206.9394378662111	411.339294433594	202.5184020996095	121.504508972168	317.1322326660157	175.1758117675782	109.5747985839844	402.0993957519534	120.5319519042969	83.95969390869143	349.5351867675782	113.2732009887696	47.80011367797853	352.3702087402345	159.8914031982422	39.688289642334	305.3517456054689	142.0519714355469	47.36938858032228	396.3357543945315	241.8803558349611	87.82212066650393	312.3019104003907	280.8204345703126	108.584213256836	362.8013305664064	225.1675415039064	84.25925445556643	416.8538513183596	319.0552978515626	65.10097503662112	325.2130737304689	328.8832397460939	77.3033142089844	369.2954101562501	294.7382812500001	46.2107391357422	433.2413635253909	373.3093872070314	71.22380828857425	371.3379211425782	
